<svg width="36" height="36" viewBox="0 0 36 36" fill="none" xmlns="http://www.w3.org/2000/svg">
<rect x="0.5" y="0.5" width="35" height="35" rx="17.5" fill="white"/>
<path d="M24.6666 20.7934C24.6666 23.22 23.22 24.6667 20.7933 24.6667H20C19.6333 24.6667 19.3333 24.3667 19.3333 24V20.1534C19.3333 19.9734 19.48 19.82 19.66 19.82L20.8333 19.8C20.9266 19.7934 21.0067 19.7267 21.0267 19.6334L21.26 18.36C21.28 18.24 21.1866 18.1267 21.06 18.1267L19.64 18.1467C19.4533 18.1467 19.3067 18 19.3 17.82L19.2733 16.1867C19.2733 16.08 19.36 15.9867 19.4733 15.9867L21.0733 15.96C21.1866 15.96 21.2733 15.8734 21.2733 15.7601L21.2466 14.16C21.2466 14.0467 21.16 13.96 21.0467 13.96L19.2466 13.9867C18.14 14.0067 17.26 14.9134 17.28 16.02L17.3133 17.8534C17.32 18.04 17.1733 18.1867 16.9867 18.1934L16.1866 18.2067C16.0733 18.2067 15.9867 18.2934 15.9867 18.4067L16.0067 19.6734C16.0067 19.7867 16.0933 19.8734 16.2066 19.8734L17.0067 19.86C17.1933 19.86 17.34 20.0067 17.3466 20.1867L17.4066 23.9867C17.4133 24.36 17.1133 24.6667 16.74 24.6667H15.2066C12.78 24.6667 11.3333 23.22 11.3333 20.7867V15.2067C11.3333 12.78 12.78 11.3334 15.2066 11.3334H20.7933C23.22 11.3334 24.6666 12.78 24.6666 15.2067V20.7934Z" fill="#2792F5"/>
<rect x="0.5" y="0.5" width="35" height="35" rx="17.5" stroke="#DCDDE1"/>
</svg>
