<svg width="36" height="36" viewBox="0 0 36 36" fill="none" xmlns="http://www.w3.org/2000/svg">
<rect x="0.5" y="0.5" width="35" height="35" rx="17.5" fill="white"/>
<path d="M20 24.6667V22C20.0928 21.1649 19.8533 20.3268 19.3333 19.6667C21.3333 19.6667 23.3333 18.3334 23.3333 16C23.3867 15.1667 23.1533 14.3467 22.6667 13.6667C22.8533 12.9 22.8533 12.1 22.6667 11.3334C22.6667 11.3334 22 11.3334 20.6667 12.3334C18.9067 12 17.0933 12 15.3333 12.3334C14 11.3334 13.3333 11.3334 13.3333 11.3334C13.1333 12.1 13.1333 12.9 13.3333 13.6667C12.8479 14.344 12.6123 15.1686 12.6667 16C12.6667 18.3334 14.6667 19.6667 16.6667 19.6667C16.4067 19.9934 16.2133 20.3667 16.1 20.7667C15.9867 21.1667 15.9533 21.5867 16 22V24.6667" stroke="#222542" stroke-width="1.5" stroke-linecap="round" stroke-linejoin="round"/>
<path d="M16 22.0001C12.9933 23.3334 12.6666 20.6667 11.3333 20.6667" stroke="#222542" stroke-width="1.5" stroke-linecap="round" stroke-linejoin="round"/>
<rect x="0.5" y="0.5" width="35" height="35" rx="17.5" stroke="#DCDDE1"/>
</svg>
