<svg width="70" height="20" viewBox="0 0 70 20" fill="none" xmlns="http://www.w3.org/2000/svg">
<path fill-rule="evenodd" clip-rule="evenodd" d="M11.7492 3.00187C10.775 2.19473 9.30684 2.19473 8.3326 3.00187L4.28814 6.35264C3.73921 6.80742 3.42514 7.45928 3.42514 8.1438V14.9615C3.42514 16.2851 4.57635 17.358 5.99645 17.358H14.0854C15.5055 17.358 16.6567 16.2851 16.6567 14.9615V8.1438C16.6567 7.45928 16.3426 6.80742 15.7937 6.35264L11.7492 3.00187ZM6.62428 1.21072C8.57277 -0.40357 11.5091 -0.403575 13.4575 1.21072L17.502 4.56149C18.5999 5.47105 19.228 6.77475 19.228 8.1438V14.9615C19.228 17.6087 16.9256 19.7546 14.0854 19.7546H5.99645C3.15625 19.7546 0.853821 17.6087 0.853821 14.9615V8.1438C0.853821 6.77475 1.48196 5.47105 2.57982 4.56149L6.62428 1.21072Z" fill="#203B3C"/>
<path d="M45.4178 7.92649H47.7327V17.4218H45.4178V16.3379C44.6001 17.2096 43.5981 17.6455 42.4118 17.6455C41.0643 17.6455 39.9472 17.1752 39.0604 16.2346C38.1851 15.2826 37.7474 14.1012 37.7474 12.6904C37.7474 11.2796 38.1908 10.1154 39.0777 9.19774C39.9645 8.26867 41.0759 7.80413 42.4118 7.80413C43.5866 7.80413 44.5886 8.2572 45.4178 9.16333V7.92649ZM40.9261 14.6518C41.4214 15.1794 42.049 15.4432 42.8092 15.4432C43.5693 15.4432 44.197 15.1794 44.6922 14.6518C45.199 14.1241 45.4523 13.4818 45.4523 12.7248C45.4523 11.9792 45.199 11.3427 44.6922 10.815C44.197 10.2874 43.5693 10.0236 42.8092 10.0236C42.0375 10.0236 41.4041 10.2874 40.9089 10.815C40.4251 11.3427 40.1833 11.9792 40.1833 12.7248C40.1833 13.4818 40.4309 14.1241 40.9261 14.6518Z" fill="#203B3C"/>
<path d="M56.9541 4.69312H59.3899V17.4218H57.0059V16.2691C56.2458 17.1867 55.2726 17.6455 54.0863 17.6455C52.7503 17.6455 51.639 17.1809 50.7521 16.2519C49.8653 15.3113 49.4219 14.1356 49.4219 12.7248C49.4219 11.3254 49.8653 10.1555 50.7521 9.21495C51.6505 8.2744 52.7619 7.80413 54.0863 7.80413C55.2265 7.80413 56.1824 8.24573 56.9541 9.12892V4.69312ZM52.5661 14.669C53.0613 15.1851 53.6947 15.4432 54.4664 15.4432C55.238 15.4432 55.8657 15.1851 56.3494 14.669C56.8331 14.1414 57.075 13.4933 57.075 12.7248C57.075 11.9678 56.8331 11.3312 56.3494 10.815C55.8657 10.2874 55.238 10.0236 54.4664 10.0236C53.6947 10.0236 53.0613 10.2874 52.5661 10.815C52.0824 11.3312 51.8405 11.9678 51.8405 12.7248C51.8405 13.4933 52.0824 14.1414 52.5661 14.669Z" fill="#203B3C"/>
<path fill-rule="evenodd" clip-rule="evenodd" d="M34.0396 10.5558C33.9654 10.6572 33.936 10.8138 33.9419 10.9014V10.9421L33.9447 17.3557H31.507V11.0185C31.4813 10.4958 31.6012 9.75933 32.0728 9.11488C32.6061 8.3862 33.4789 7.92676 34.642 7.92676H37.4789V10.3658H34.642C34.3879 10.3658 34.2461 10.4128 34.1749 10.4469C34.1066 10.4797 34.0678 10.5174 34.0396 10.5558Z" fill="#203B3C"/>
<path fill-rule="evenodd" clip-rule="evenodd" d="M24.3857 14.5245V4.7041H26.8355V14.5867L26.8336 14.6207C26.8337 14.6194 26.8332 14.6287 26.8351 14.6464C26.837 14.6639 26.8406 14.6846 26.8466 14.7064C26.859 14.7513 26.8767 14.7851 26.8944 14.8079C26.9083 14.8257 26.9313 14.8496 26.9836 14.8734C27.0389 14.8987 27.1601 14.9386 27.3847 14.9386H29.9706V17.3854H27.3847C26.3096 17.3854 25.4811 16.9791 24.9598 16.309C24.4952 15.7117 24.3663 15.0224 24.3857 14.5245Z" fill="#203B3C"/>
<path fill-rule="evenodd" clip-rule="evenodd" d="M29.9407 10.3735H25.6385V7.92676H29.9407V10.3735Z" fill="#203B3C"/>
<path d="M64.1159 17.0956L60.0605 7.9054H62.7271L65.1992 13.7727L64.1159 17.0956Z" fill="#203B3C"/>
<path d="M69.1461 7.9054H66.7879L63.6051 17.1501C63.4025 17.8012 63.3157 17.8156 62.7515 17.8156H61.2614V20.0002H63.0264C65.211 20.0002 65.7029 17.9024 65.7029 17.9024L69.1461 7.9054Z" fill="#203B3C"/>
<rect x="6.22192" y="7.97546" width="7.63802" height="2.57668" fill="#203B3C"/>
<rect x="8.73724" y="14.6313" width="5.52146" height="2.57668" transform="rotate(-90 8.73724 14.6313)" fill="#203B3C"/>
</svg>
