<svg width="36" height="36" viewBox="0 0 36 36" fill="none" xmlns="http://www.w3.org/2000/svg">
<rect x="0.5" y="0.5" width="35" height="35" rx="17.5" fill="white"/>
<path d="M24.9733 14C24.46 14.2333 23.9067 14.3866 23.3333 14.46C23.92 14.1066 24.3733 13.5466 24.5867 12.8733C24.0333 13.2066 23.42 13.44 22.7733 13.5733C22.2467 13 21.5067 12.6666 20.6667 12.6666C19.1 12.6666 17.82 13.9466 17.82 15.5266C17.82 15.7533 17.8467 15.9733 17.8933 16.18C15.52 16.06 13.4067 14.92 12 13.1933C11.7533 13.6133 11.6133 14.1066 11.6133 14.6266C11.6133 15.62 12.1133 16.5 12.8867 17C12.4133 17 11.9733 16.8666 11.5867 16.6666V16.6866C11.5867 18.0733 12.5733 19.2333 13.88 19.4933C13.4605 19.6081 13.0201 19.6241 12.5933 19.54C12.7744 20.1083 13.129 20.6056 13.6074 20.9619C14.0857 21.3183 14.6636 21.5158 15.26 21.5266C14.2491 22.3269 12.996 22.7595 11.7067 22.7533C11.48 22.7533 11.2533 22.74 11.0267 22.7133C12.2933 23.5266 13.8 24 15.4133 24C20.6667 24 23.5533 19.64 23.5533 15.86C23.5533 15.7333 23.5533 15.6133 23.5467 15.4866C24.1067 15.0866 24.5867 14.58 24.9733 14Z" fill="#1FA3DC"/>
<rect x="0.5" y="0.5" width="35" height="35" rx="17.5" stroke="#DCDDE1"/>
</svg>
